<svg xmlns="http://www.w3.org/2000/svg" width="304.401" height="263.696" viewBox="0 0 304.401 263.696">
  <g id="UnDraw_Image" data-name="UnDraw/Image" transform="translate(0 0)">
    <path id="Caminho_35" data-name="Caminho 35" d="M651.74,266.815a30.047,30.047,0,1,1-8.763-21.34A30.125,30.125,0,0,1,651.74,266.815Z" transform="translate(-442.501 -185.307)" fill="#f2f2f2"/>
    <path id="Caminho_36" data-name="Caminho 36" d="M823.254,302.757l4.236-8.088c-3.8-4.587-16.26-10.15-16.26-10.15l-16.867-15.352a4.031,4.031,0,1,0-4.951,4.914l18.222,21.854Z" transform="translate(-563.877 -203.688)" fill="#9e616a"/>
    <path id="Caminho_37" data-name="Caminho 37" d="M878.568,339.765l5.981,1.9a20.527,20.527,0,0,0,13.319-.3h0a7.412,7.412,0,0,0,4.787-6.188h0a7.4,7.4,0,0,0-6.156-8c-5.609-.922-12.836-1.376-15.414,1.692l-.026.031Z" transform="translate(-621.243 -241.255)" fill="#3f3d56"/>
    <circle id="Elipse_3" data-name="Elipse 3" cx="30.125" cy="30.125" r="30.125" transform="translate(184.18 63.021)" fill="#fff"/>
    <path id="Caminho_38" data-name="Caminho 38" d="M726.821,304.027a28.308,28.308,0,0,1-2.019,6.445c-5.314,11.242,9.819,7.578,15.228,7.578,5.913,0,11.571,3.109,10.707-10.707-.369-5.9-4.793-10.707-10.707-10.707C734.979,296.638,727.878,298.882,726.821,304.027Z" transform="translate(-524.811 -222.665)" fill="#2f2e41"/>
    <circle id="Elipse_4" data-name="Elipse 4" cx="8.7" cy="8.7" r="8.7" transform="translate(205.633 77.983)" fill="#ffb6b6"/>
    <path id="Caminho_39" data-name="Caminho 39" d="M741.111,304.414a9.966,9.966,0,0,1,15.152,8.7c-4.433,1.113-9.091,1.965-13.818.266l-1.117-2.733-.658,2.735c-1.44.589-2.883,1.086-4.327-.006A10.176,10.176,0,0,1,741.111,304.414Z" transform="translate(-532.686 -226.6)" fill="#2f2e41"/>
    <path id="Caminho_40" data-name="Caminho 40" d="M757.1,379.529a30.114,30.114,0,0,1-42.147,3.046l2.584-7.21a7.754,7.754,0,0,1,6.586-4.522l1.644-.1,3.92-3.381s10.561-.377,10.4-.558l6.4,3.848-.005-.027,2.515.154a7.75,7.75,0,0,1,6.586,4.522Z" transform="translate(-519.374 -266.352)" fill="#6c63ff"/>
    <path id="Caminho_41" data-name="Caminho 41" d="M730.244,706.421,729.5,696.01a33.679,33.679,0,0,0-15.812-3.546c7.71,5.96,7.093,17.872,12.433,26.024a20.258,20.258,0,0,0,15.105,8.952l6.417,3.692a33.945,33.945,0,0,0-7.9-27.3,32.785,32.785,0,0,0-6.177-5.432C732.156,702.424,730.244,706.421,730.244,706.421Z" transform="translate(-518.582 -469.112)" fill="#f2f2f2"/>
    <path id="Caminho_42" data-name="Caminho 42" d="M213.244,217.421,212.5,207.01a33.678,33.678,0,0,0-15.812-3.546c7.71,5.96,7.093,17.872,12.433,26.024a20.258,20.258,0,0,0,15.105,8.952l6.417,3.692a33.945,33.945,0,0,0-7.9-27.3,32.791,32.791,0,0,0-6.177-5.432C215.156,213.424,213.244,217.421,213.244,217.421Z" transform="translate(-196.684 -164.647)" fill="#f2f2f2"/>
    <path id="Caminho_43" data-name="Caminho 43" d="M623.081,653.143h-5.005l-2.381-19.306h7.387Z" transform="translate(-383.347 -394.644)" fill="#9e616a"/>
    <path id="Caminho_44" data-name="Caminho 44" d="M808.706,784.079H792.566v-.2a6.282,6.282,0,0,1,6.281-6.282h0l2.948-2.237,5.5,2.237h1.409Z" transform="translate(-567.696 -520.727)" fill="#2f2e41"/>
    <path id="Caminho_45" data-name="Caminho 45" d="M739.978,653.143h-5.005l-2.381-19.306h7.388Z" transform="translate(-456.131 -394.644)" fill="#9e616a"/>
    <path id="Caminho_46" data-name="Caminho 46" d="M925.6,784.079H909.464v-.2a6.282,6.282,0,0,1,6.281-6.282h0l2.948-2.236,5.5,2.237H925.6Z" transform="translate(-640.48 -520.728)" fill="#2f2e41"/>
    <path id="Caminho_47" data-name="Caminho 47" d="M848.6,510.067l4.21,39.994s5.6,40.046,4.552,45.571.263,6.315.263,6.315l-9.6-.684s.263-3.421-1.316-5-.789-6.315-.789-6.315L827.285,524.8l-11.314,34.206s-1.842,37.626-2.1,38.152-1.052,7.63-1.052,7.63h-9.735s1.316-4.21-.526-5.526-3.421-.263-1.842-2.631,2.1-5.262,1.579-6.578-.526-6.578-.526-6.578.789-71.042,5.262-73.411S848.6,510.067,848.6,510.067Z" transform="translate(-572.363 -354.896)" fill="#2f2e41"/>
    <circle id="Elipse_5" data-name="Elipse 5" cx="10.355" cy="10.355" r="10.355" transform="translate(245.942 53.483)" fill="#9e616a"/>
    <path id="Caminho_48" data-name="Caminho 48" d="M861.229,387.587c-20.053,4.141-46.627-2.979-46.627-2.979l7.089-30.729-2.52-32.159a8.752,8.752,0,0,1,5.417-8.925l4.812-1.8,3.977-5.694,11.36.373,4.541,5.978,3.584,1.9,7.77,4.121.034.017v.017l-2.438,23.651-1.47,14.26s4.466,16.038,3.55,18.165-.12,1.1.1,2.233.9,1.207,1.005,3.444S861.229,387.587,861.229,387.587Z" transform="translate(-581.416 -228.058)" fill="#3f3d56"/>
    <path id="Caminho_49" data-name="Caminho 49" d="M746.255,798.238h-154.9a.347.347,0,0,1,0-.694h154.9a.347.347,0,0,1,0,.694Z" transform="translate(-442.199 -534.543)" fill="#ccc"/>
    <path id="Caminho_50" data-name="Caminho 50" d="M850.022,251.356a31.9,31.9,0,0,0,5.414-.519c1.769-.407,5.671-3.425,6.734-5.208h0a15.67,15.67,0,0,0,1.523-4.858,14.257,14.257,0,0,0-2.785-11.25,4.5,4.5,0,0,0-1.859-1.505c-.066-.024-.133-.045-.2-.062a5.558,5.558,0,0,1-2.808-1.639,4.581,4.581,0,0,0-.472-.461,6.845,6.845,0,0,0-2.892-1.36c-1.709-.41-4.154.1-7.266,1.53a7.682,7.682,0,0,1-4.636.262.435.435,0,0,0-.406.151,3.074,3.074,0,0,1-2.067.886c-.475.033-.957.7-1.537,1.578-.132.2-.286.43-.4.571l-.022-.265-.261.3a3.729,3.729,0,0,0,1.84,6.031,7.272,7.272,0,0,0,1.468.2c.3.019.61.039.908.083a5.623,5.623,0,0,1,4.271,3.54,1.471,1.471,0,0,0,2.237.656,2.429,2.429,0,0,1,2.2-.46,1.612,1.612,0,0,1,.734.79,2.1,2.1,0,0,0,.821.91c1.221.59,1.375,3.34,1,5.645-.36,2.222-1.143,3.843-1.9,3.942-.586.076-.652.119-.692.225l-.036.094.068.085a2.4,2.4,0,0,0,1.018.109Z" transform="translate(-594.229 -177.661)" fill="#2f2e41"/>
    <path id="Caminho_51" data-name="Caminho 51" d="M714.245,327.621a30.5,30.5,0,1,1,30.5-30.5,30.5,30.5,0,0,1-30.5,30.5Zm0-60.25a29.747,29.747,0,1,0,29.748,29.748A29.747,29.747,0,0,0,714.245,267.372Z" transform="translate(-499.94 -203.973)" fill="#3f3d56"/>
    <circle id="Elipse_6" data-name="Elipse 6" cx="30.125" cy="30.125" r="30.125" transform="translate(78.893 0.377)" fill="#fff"/>
    <circle id="Elipse_7" data-name="Elipse 7" cx="9.823" cy="9.823" r="9.823" transform="translate(100.589 13.929)" fill="#ffb8b8"/>
    <path id="bf427902-b9bf-4946-b5d7-5c1c7e04535e" d="M478.986,133.942s2.558-4.889-3.069-5.334c0,0-4.8-4.351-9.686-.8a4.91,4.91,0,0,0-4.125,3.018,1.83,1.83,0,0,0-2.559,1.333s-1.535,4.445,0,8.445,2.045,4.445,2.045,4.445-1.077-4.964,5.062-5.409,11.771-4.29,12.282.6,1.074,2.681,1.074,2.681S484.868,135.942,478.986,133.942Z" transform="translate(-359.924 -116.68)" fill="#2f2e41"/>
    <path id="Caminho_52" data-name="Caminho 52" d="M476.067,213.529a30.114,30.114,0,0,1-42.147,3.046l2.584-7.21a7.753,7.753,0,0,1,6.586-4.522l1.644-.1,3.92-3.381s10.561-.377,10.4-.558l6.4,3.848-.005-.027,2.515.154a7.75,7.75,0,0,1,6.586,4.522Z" transform="translate(-344.393 -162.996)" fill="#6c63ff"/>
    <path id="Caminho_53" data-name="Caminho 53" d="M435.245,161.621a30.5,30.5,0,1,1,30.5-30.5,30.5,30.5,0,0,1-30.5,30.5Zm0-60.25a29.747,29.747,0,1,0,29.748,29.748A29.747,29.747,0,0,0,435.245,101.372Z" transform="translate(-326.227 -100.617)" fill="#3f3d56"/>
    <circle id="Elipse_8" data-name="Elipse 8" cx="30.125" cy="30.125" r="30.125" transform="translate(8.58 47.926)" fill="#fff"/>
    <path id="Caminho_54" data-name="Caminho 54" d="M261.382,266.011c1.246-3.97,4.078-7.611,8-8.953s9.654.7,12.6,3.638c5.387,5.369,6.7,23.814,3,29.643-.736-.039-3.277-.068-4.022-.1l-1.054-3.513v3.479q-1.781-.055-3.589-.076A15.62,15.62,0,0,1,260.891,274.9C260.795,271.032,260.891,267.576,261.382,266.011Z" transform="translate(-236.64 -197.76)" fill="#2f2e41"/>
    <circle id="Elipse_9" data-name="Elipse 9" cx="8.585" cy="8.585" r="8.585" transform="translate(29.672 64.238)" fill="#9e616a"/>
    <path id="Caminho_55" data-name="Caminho 55" d="M278.429,265.444l9.885-4.95h0a12.425,12.425,0,0,1,7.277,10.294l.246,2.951-4.139-1.054-.453-3.774-.7,3.48-1.91-.486.018-5.859-1.912,5.855-6.823-1.568Z" transform="translate(-247.581 -200.161)" fill="#2f2e41"/>
    <path id="Caminho_56" data-name="Caminho 56" d="M288.947,339.275a30.114,30.114,0,0,1-42.147,3.046l2.584-7.21a7.753,7.753,0,0,1,6.586-4.522l1.644-.1,3.92-3.381s10.561-.377,10.4-.558l6.4,3.848-.005-.027,2.515.154a7.75,7.75,0,0,1,6.586,4.522Z" transform="translate(-227.888 -241.289)" fill="#6c63ff"/>
    <path id="Caminho_57" data-name="Caminho 57" d="M248.922,287.621a30.5,30.5,0,1,1,30.5-30.5,30.5,30.5,0,0,1-30.5,30.5Zm0-60.25a29.747,29.747,0,1,0,29.747,29.747A29.747,29.747,0,0,0,248.922,227.372Z" transform="translate(-210.217 -179.068)" fill="#3f3d56"/>
    <path id="Caminho_58" data-name="Caminho 58" d="M757.293,375.809l-4.561-7.909c-5.908.75-17.281,8.294-17.281,8.294l-22,6.019a4.031,4.031,0,1,0,1.5,6.813l28.215-3.68Z" transform="translate(-515.165 -267.034)" fill="#9e616a"/>
    <path id="Caminho_59" data-name="Caminho 59" d="M820.841,352.48l10.211-8.552,1.486-6.884a7.412,7.412,0,0,0-2.661-7.357h0a7.4,7.4,0,0,0-10.055.911c-3.783,4.242-8.038,10.1-6.828,13.922l.012.039Z" transform="translate(-580.284 -242.272)" fill="#3f3d56"/>
    <path id="Caminho_60" data-name="Caminho 60" d="M349.732,419.6H311.366a3.883,3.883,0,0,1-3.878-3.878V392.1a3.883,3.883,0,0,1,3.878-3.878h38.366a3.883,3.883,0,0,1,3.878,3.878v23.63A3.883,3.883,0,0,1,349.732,419.6Z" transform="translate(-265.674 -279.685)" fill="#e6e6e6"/>
    <path id="Caminho_61" data-name="Caminho 61" d="M339.345,421.582H318.919a3.636,3.636,0,0,1-3.632-3.632V399.915a3.636,3.636,0,0,1,3.632-3.632h32.972a3.636,3.636,0,0,1,3.632,3.632V405.4A16.2,16.2,0,0,1,339.345,421.582Z" transform="translate(-270.529 -284.707)" fill="#fff"/>
    <path id="Caminho_62" data-name="Caminho 62" d="M358.6,419.611H332.208a.861.861,0,0,1,0-1.722H358.6a.861.861,0,0,1,0,1.722Z" transform="translate(-280.529 -298.159)" fill="#6c63ff"/>
    <path id="Caminho_63" data-name="Caminho 63" d="M336.336,428.624h-4.128a.861.861,0,1,1,0-1.722h4.129a.861.861,0,1,1,0,1.722Z" transform="translate(-280.529 -303.771)" fill="#6c63ff"/>
    <path id="Caminho_64" data-name="Caminho 64" d="M343.649,437.637H332.208a.861.861,0,1,1,0-1.722h11.441a.861.861,0,0,1,0,1.722Z" transform="translate(-280.529 -309.383)" fill="#6c63ff"/>
    <circle id="Elipse_10" data-name="Elipse 10" cx="8.116" cy="8.116" r="8.116" transform="translate(32.36 99.946)" fill="#3f3d56"/>
    <path id="Caminho_65" data-name="Caminho 65" d="M613.732,135.6H575.366a3.883,3.883,0,0,1-3.878-3.878V108.1a3.883,3.883,0,0,1,3.878-3.878h38.366a3.883,3.883,0,0,1,3.878,3.878v23.63a3.883,3.883,0,0,1-3.878,3.878Z" transform="translate(-430.047 -102.859)" fill="#e6e6e6"/>
    <path id="Caminho_66" data-name="Caminho 66" d="M603.345,137.582H582.919a3.636,3.636,0,0,1-3.632-3.632V115.915a3.636,3.636,0,0,1,3.632-3.632h32.972a3.636,3.636,0,0,1,3.632,3.632V121.4a16.2,16.2,0,0,1-16.179,16.178Z" transform="translate(-434.903 -107.881)" fill="#fff"/>
    <path id="Caminho_67" data-name="Caminho 67" d="M622.6,135.611H596.208a.861.861,0,1,1,0-1.722H622.6a.861.861,0,0,1,0,1.722Z" transform="translate(-444.902 -121.333)" fill="#6c63ff"/>
    <path id="Caminho_68" data-name="Caminho 68" d="M600.336,144.624h-4.128a.861.861,0,1,1,0-1.722h4.129a.861.861,0,1,1,0,1.722Z" transform="translate(-444.902 -126.946)" fill="#6c63ff"/>
    <path id="Caminho_69" data-name="Caminho 69" d="M607.649,153.637H596.208a.861.861,0,1,1,0-1.722h11.441a.861.861,0,1,1,0,1.722Z" transform="translate(-444.902 -132.557)" fill="#6c63ff"/>
    <circle id="Elipse_11" data-name="Elipse 11" cx="8.116" cy="8.116" r="8.116" transform="translate(131.987 21.075)" fill="#3f3d56"/>
  </g>
</svg>
