<svg xmlns="http://www.w3.org/2000/svg" width="236.921" height="72" viewBox="0 0 236.921 72">
  <g id="Logo" transform="translate(-95.792 -200)">
    <text id="Infinity" transform="translate(176.713 258)" fill="#fff" font-size="50" font-family="ZenKakuGothicAntique-Bold, Zen Kaku Gothic Antique" font-weight="700"><tspan x="0" y="0">Infinity</tspan></text>
    <path id="Infinity-Arrow" d="M67.923,64.236c9.522-2.338,17.673,4.17,24.33,11.3.227.2.572.742.846.306,4.665-5.18,10.478-13.06,20.262-11.979,5.763.715,10.494,3.053,13.175,8.8-.675-.222-1.235-.689-1.919-.886-.1.669-.159,1.34-.242,2.009-1.3-1.395-2.687-5.288-9.985-6.374-8.23-1.2-12.962,5.473-18.168,12.119-.081.143-.334.334-.131.489,3.541,3.688,6.9,7.678,11.25,10.449,10.106,6.564,20.76-3.214,18.622-12.419a18.837,18.837,0,0,0-1.725.97c.174-2.2.513-4.38.666-6.574,1.749.939,3.467,1.951,5.145,3.008-.583.439-1.226.786-1.844,1.17,3.9,14.469-10.317,28.17-25.934,19.3a60.515,60.515,0,0,1-11.3-9.272l-.117-.019c-4.56,5.109-10.432,12.936-19.874,12.041C50.45,96.842,50.324,68.242,67.917,64.241M57.832,80.235c-.98,6.505,3.767,12.98,9.156,14.341,9.22,2.452,13.819-2.4,20.766-11.706-3.31-4.443-9.393-10.8-14.681-12.513C66.137,68.238,59.021,73.353,57.832,80.235Z" transform="translate(40.665 159.248)" fill="#fff"/>
  </g>
</svg>
